<mxfile host="app.diagrams.net" modified="2024-05-08T14:42:25.577Z" agent="Mozilla/5.0 (Windows NT 10.0; Win64; x64) AppleWebKit/537.36 (KHTML, like Gecko) Chrome/124.0.0.0 Safari/537.36" etag="dnJNpfzN2-c-rzCs9fM_" version="24.3.1" type="github" pages="3">
  <diagram id="C5RBs43oDa-KdzZeNtuy" name="Page-1">
    <mxGraphModel dx="1121" dy="672" grid="1" gridSize="10" guides="1" tooltips="1" connect="1" arrows="1" fold="1" page="1" pageScale="1" pageWidth="827" pageHeight="1169" math="0" shadow="0">
      <root>
        <mxCell id="WIyWlLk6GJQsqaUBKTNV-0" />
        <mxCell id="WIyWlLk6GJQsqaUBKTNV-1" parent="WIyWlLk6GJQsqaUBKTNV-0" />
        <mxCell id="zkfFHV4jXpPFQw0GAbJ--0" value="Component" style="swimlane;fontStyle=0;align=center;verticalAlign=top;childLayout=stackLayout;horizontal=1;startSize=26;horizontalStack=0;resizeParent=1;resizeLast=0;collapsible=1;marginBottom=0;rounded=0;shadow=0;strokeWidth=1;" parent="WIyWlLk6GJQsqaUBKTNV-1" vertex="1">
          <mxGeometry x="190" y="60" width="130" height="120" as="geometry">
            <mxRectangle x="190" y="60" width="160" height="26" as="alternateBounds" />
          </mxGeometry>
        </mxCell>
        <mxCell id="zkfFHV4jXpPFQw0GAbJ--1" value="+ id" style="text;align=left;verticalAlign=top;spacingLeft=4;spacingRight=4;overflow=hidden;rotatable=0;points=[[0,0.5],[1,0.5]];portConstraint=eastwest;" parent="zkfFHV4jXpPFQw0GAbJ--0" vertex="1">
          <mxGeometry y="26" width="130" height="26" as="geometry" />
        </mxCell>
        <mxCell id="zkfFHV4jXpPFQw0GAbJ--2" value="+ name" style="text;align=left;verticalAlign=top;spacingLeft=4;spacingRight=4;overflow=hidden;rotatable=0;points=[[0,0.5],[1,0.5]];portConstraint=eastwest;rounded=0;shadow=0;html=0;" parent="zkfFHV4jXpPFQw0GAbJ--0" vertex="1">
          <mxGeometry y="52" width="130" height="26" as="geometry" />
        </mxCell>
        <mxCell id="zkfFHV4jXpPFQw0GAbJ--4" value="" style="line;html=1;strokeWidth=1;align=left;verticalAlign=middle;spacingTop=-1;spacingLeft=3;spacingRight=3;rotatable=0;labelPosition=right;points=[];portConstraint=eastwest;" parent="zkfFHV4jXpPFQw0GAbJ--0" vertex="1">
          <mxGeometry y="78" width="130" height="8" as="geometry" />
        </mxCell>
        <mxCell id="zkfFHV4jXpPFQw0GAbJ--5" value="+ addEvent" style="text;align=left;verticalAlign=top;spacingLeft=4;spacingRight=4;overflow=hidden;rotatable=0;points=[[0,0.5],[1,0.5]];portConstraint=eastwest;" parent="zkfFHV4jXpPFQw0GAbJ--0" vertex="1">
          <mxGeometry y="86" width="130" height="26" as="geometry" />
        </mxCell>
        <mxCell id="UWbLIeTRbmQq-SImJMDe-1" value="ComponentPool" style="swimlane;fontStyle=0;align=center;verticalAlign=top;childLayout=stackLayout;horizontal=1;startSize=26;horizontalStack=0;resizeParent=1;resizeLast=0;collapsible=1;marginBottom=0;rounded=0;shadow=0;strokeWidth=1;" parent="WIyWlLk6GJQsqaUBKTNV-1" vertex="1">
          <mxGeometry x="440" y="60" width="130" height="120" as="geometry">
            <mxRectangle x="230" y="140" width="160" height="26" as="alternateBounds" />
          </mxGeometry>
        </mxCell>
        <mxCell id="UWbLIeTRbmQq-SImJMDe-2" value="- componentPool" style="text;align=left;verticalAlign=top;spacingLeft=4;spacingRight=4;overflow=hidden;rotatable=0;points=[[0,0.5],[1,0.5]];portConstraint=eastwest;" parent="UWbLIeTRbmQq-SImJMDe-1" vertex="1">
          <mxGeometry y="26" width="130" height="26" as="geometry" />
        </mxCell>
        <mxCell id="UWbLIeTRbmQq-SImJMDe-4" value="" style="line;html=1;strokeWidth=1;align=left;verticalAlign=middle;spacingTop=-1;spacingLeft=3;spacingRight=3;rotatable=0;labelPosition=right;points=[];portConstraint=eastwest;" parent="UWbLIeTRbmQq-SImJMDe-1" vertex="1">
          <mxGeometry y="52" width="130" height="8" as="geometry" />
        </mxCell>
        <mxCell id="UWbLIeTRbmQq-SImJMDe-5" value="push" style="text;align=left;verticalAlign=top;spacingLeft=4;spacingRight=4;overflow=hidden;rotatable=0;points=[[0,0.5],[1,0.5]];portConstraint=eastwest;" parent="UWbLIeTRbmQq-SImJMDe-1" vertex="1">
          <mxGeometry y="60" width="130" height="26" as="geometry" />
        </mxCell>
        <mxCell id="UWbLIeTRbmQq-SImJMDe-6" value="execute" style="text;strokeColor=none;fillColor=none;align=left;verticalAlign=top;spacingLeft=4;spacingRight=4;overflow=hidden;rotatable=0;points=[[0,0.5],[1,0.5]];portConstraint=eastwest;whiteSpace=wrap;html=1;" parent="UWbLIeTRbmQq-SImJMDe-1" vertex="1">
          <mxGeometry y="86" width="130" height="26" as="geometry" />
        </mxCell>
        <mxCell id="UWbLIeTRbmQq-SImJMDe-13" value="TransformationComp" style="swimlane;fontStyle=0;childLayout=stackLayout;horizontal=1;startSize=26;fillColor=none;horizontalStack=0;resizeParent=1;resizeParentMax=0;resizeLast=0;collapsible=1;marginBottom=0;whiteSpace=wrap;html=1;" parent="WIyWlLk6GJQsqaUBKTNV-1" vertex="1">
          <mxGeometry x="440" y="220" width="130" height="190" as="geometry" />
        </mxCell>
        <mxCell id="UWbLIeTRbmQq-SImJMDe-14" value="- transformation" style="text;strokeColor=none;fillColor=none;align=left;verticalAlign=top;spacingLeft=4;spacingRight=4;overflow=hidden;rotatable=0;points=[[0,0.5],[1,0.5]];portConstraint=eastwest;whiteSpace=wrap;html=1;" parent="UWbLIeTRbmQq-SImJMDe-13" vertex="1">
          <mxGeometry y="26" width="130" height="26" as="geometry" />
        </mxCell>
        <mxCell id="UWbLIeTRbmQq-SImJMDe-15" value="+ position" style="text;strokeColor=none;fillColor=none;align=left;verticalAlign=top;spacingLeft=4;spacingRight=4;overflow=hidden;rotatable=0;points=[[0,0.5],[1,0.5]];portConstraint=eastwest;whiteSpace=wrap;html=1;" parent="UWbLIeTRbmQq-SImJMDe-13" vertex="1">
          <mxGeometry y="52" width="130" height="26" as="geometry" />
        </mxCell>
        <mxCell id="UWbLIeTRbmQq-SImJMDe-16" value="+ scaleVec" style="text;strokeColor=none;fillColor=none;align=left;verticalAlign=top;spacingLeft=4;spacingRight=4;overflow=hidden;rotatable=0;points=[[0,0.5],[1,0.5]];portConstraint=eastwest;whiteSpace=wrap;html=1;" parent="UWbLIeTRbmQq-SImJMDe-13" vertex="1">
          <mxGeometry y="78" width="130" height="26" as="geometry" />
        </mxCell>
        <mxCell id="UWbLIeTRbmQq-SImJMDe-49" value="+ rotation" style="text;strokeColor=none;fillColor=none;align=left;verticalAlign=top;spacingLeft=4;spacingRight=4;overflow=hidden;rotatable=0;points=[[0,0.5],[1,0.5]];portConstraint=eastwest;whiteSpace=wrap;html=1;" parent="UWbLIeTRbmQq-SImJMDe-13" vertex="1">
          <mxGeometry y="104" width="130" height="26" as="geometry" />
        </mxCell>
        <mxCell id="UWbLIeTRbmQq-SImJMDe-50" value="" style="line;strokeWidth=1;fillColor=none;align=left;verticalAlign=middle;spacingTop=-1;spacingLeft=3;spacingRight=3;rotatable=0;labelPosition=right;points=[];portConstraint=eastwest;strokeColor=inherit;" parent="UWbLIeTRbmQq-SImJMDe-13" vertex="1">
          <mxGeometry y="130" width="130" height="8" as="geometry" />
        </mxCell>
        <mxCell id="UWbLIeTRbmQq-SImJMDe-51" value="+ linkChild" style="text;strokeColor=none;fillColor=none;align=left;verticalAlign=top;spacingLeft=4;spacingRight=4;overflow=hidden;rotatable=0;points=[[0,0.5],[1,0.5]];portConstraint=eastwest;whiteSpace=wrap;html=1;" parent="UWbLIeTRbmQq-SImJMDe-13" vertex="1">
          <mxGeometry y="138" width="130" height="26" as="geometry" />
        </mxCell>
        <mxCell id="UWbLIeTRbmQq-SImJMDe-52" value="+ unlinkChild" style="text;strokeColor=none;fillColor=none;align=left;verticalAlign=top;spacingLeft=4;spacingRight=4;overflow=hidden;rotatable=0;points=[[0,0.5],[1,0.5]];portConstraint=eastwest;whiteSpace=wrap;html=1;" parent="UWbLIeTRbmQq-SImJMDe-13" vertex="1">
          <mxGeometry y="164" width="130" height="26" as="geometry" />
        </mxCell>
        <mxCell id="UWbLIeTRbmQq-SImJMDe-19" value="" style="endArrow=block;endSize=16;endFill=0;html=1;rounded=0;exitX=0;exitY=0.5;exitDx=0;exitDy=0;entryX=0.5;entryY=1;entryDx=0;entryDy=0;" parent="WIyWlLk6GJQsqaUBKTNV-1" source="UWbLIeTRbmQq-SImJMDe-13" target="zkfFHV4jXpPFQw0GAbJ--0" edge="1">
          <mxGeometry width="160" relative="1" as="geometry">
            <mxPoint x="230" y="270" as="sourcePoint" />
            <mxPoint x="390" y="270" as="targetPoint" />
            <Array as="points">
              <mxPoint x="255" y="315" />
            </Array>
          </mxGeometry>
        </mxCell>
        <mxCell id="UWbLIeTRbmQq-SImJMDe-20" value="Transformation" style="swimlane;fontStyle=0;childLayout=stackLayout;horizontal=1;startSize=26;fillColor=none;horizontalStack=0;resizeParent=1;resizeParentMax=0;resizeLast=0;collapsible=1;marginBottom=0;whiteSpace=wrap;html=1;" parent="WIyWlLk6GJQsqaUBKTNV-1" vertex="1">
          <mxGeometry x="630" y="20" width="130" height="130" as="geometry">
            <mxRectangle x="510" y="20" width="120" height="30" as="alternateBounds" />
          </mxGeometry>
        </mxCell>
        <mxCell id="UWbLIeTRbmQq-SImJMDe-21" value="+ positionVec" style="text;strokeColor=none;fillColor=none;align=left;verticalAlign=top;spacingLeft=4;spacingRight=4;overflow=hidden;rotatable=0;points=[[0,0.5],[1,0.5]];portConstraint=eastwest;whiteSpace=wrap;html=1;" parent="UWbLIeTRbmQq-SImJMDe-20" vertex="1">
          <mxGeometry y="26" width="130" height="26" as="geometry" />
        </mxCell>
        <mxCell id="UWbLIeTRbmQq-SImJMDe-22" value="+ scaleVec" style="text;strokeColor=none;fillColor=none;align=left;verticalAlign=top;spacingLeft=4;spacingRight=4;overflow=hidden;rotatable=0;points=[[0,0.5],[1,0.5]];portConstraint=eastwest;whiteSpace=wrap;html=1;" parent="UWbLIeTRbmQq-SImJMDe-20" vertex="1">
          <mxGeometry y="52" width="130" height="26" as="geometry" />
        </mxCell>
        <mxCell id="UWbLIeTRbmQq-SImJMDe-23" value="+ roatation" style="text;strokeColor=none;fillColor=none;align=left;verticalAlign=top;spacingLeft=4;spacingRight=4;overflow=hidden;rotatable=0;points=[[0,0.5],[1,0.5]];portConstraint=eastwest;whiteSpace=wrap;html=1;" parent="UWbLIeTRbmQq-SImJMDe-20" vertex="1">
          <mxGeometry y="78" width="130" height="26" as="geometry" />
        </mxCell>
        <mxCell id="UWbLIeTRbmQq-SImJMDe-28" value="+ matrix" style="text;strokeColor=none;fillColor=none;align=left;verticalAlign=top;spacingLeft=4;spacingRight=4;overflow=hidden;rotatable=0;points=[[0,0.5],[1,0.5]];portConstraint=eastwest;whiteSpace=wrap;html=1;" parent="UWbLIeTRbmQq-SImJMDe-20" vertex="1">
          <mxGeometry y="104" width="130" height="26" as="geometry" />
        </mxCell>
        <mxCell id="UWbLIeTRbmQq-SImJMDe-29" value="HierTransformation" style="swimlane;fontStyle=0;childLayout=stackLayout;horizontal=1;startSize=26;fillColor=none;horizontalStack=0;resizeParent=1;resizeParentMax=0;resizeLast=0;collapsible=1;marginBottom=0;whiteSpace=wrap;html=1;" parent="WIyWlLk6GJQsqaUBKTNV-1" vertex="1">
          <mxGeometry x="630" y="217" width="130" height="216" as="geometry">
            <mxRectangle x="510" y="217" width="140" height="30" as="alternateBounds" />
          </mxGeometry>
        </mxCell>
        <mxCell id="UWbLIeTRbmQq-SImJMDe-30" value="- children" style="text;strokeColor=none;fillColor=none;align=left;verticalAlign=top;spacingLeft=4;spacingRight=4;overflow=hidden;rotatable=0;points=[[0,0.5],[1,0.5]];portConstraint=eastwest;whiteSpace=wrap;html=1;" parent="UWbLIeTRbmQq-SImJMDe-29" vertex="1">
          <mxGeometry y="26" width="130" height="26" as="geometry" />
        </mxCell>
        <mxCell id="UWbLIeTRbmQq-SImJMDe-31" value="- parent" style="text;strokeColor=none;fillColor=none;align=left;verticalAlign=top;spacingLeft=4;spacingRight=4;overflow=hidden;rotatable=0;points=[[0,0.5],[1,0.5]];portConstraint=eastwest;whiteSpace=wrap;html=1;" parent="UWbLIeTRbmQq-SImJMDe-29" vertex="1">
          <mxGeometry y="52" width="130" height="26" as="geometry" />
        </mxCell>
        <mxCell id="UWbLIeTRbmQq-SImJMDe-32" value="- root" style="text;strokeColor=none;fillColor=none;align=left;verticalAlign=top;spacingLeft=4;spacingRight=4;overflow=hidden;rotatable=0;points=[[0,0.5],[1,0.5]];portConstraint=eastwest;whiteSpace=wrap;html=1;" parent="UWbLIeTRbmQq-SImJMDe-29" vertex="1">
          <mxGeometry y="78" width="130" height="26" as="geometry" />
        </mxCell>
        <mxCell id="UWbLIeTRbmQq-SImJMDe-33" value="+ localMatrix" style="text;strokeColor=none;fillColor=none;align=left;verticalAlign=top;spacingLeft=4;spacingRight=4;overflow=hidden;rotatable=0;points=[[0,0.5],[1,0.5]];portConstraint=eastwest;whiteSpace=wrap;html=1;" parent="UWbLIeTRbmQq-SImJMDe-29" vertex="1">
          <mxGeometry y="104" width="130" height="26" as="geometry" />
        </mxCell>
        <mxCell id="UWbLIeTRbmQq-SImJMDe-34" value="+ worldMatrix" style="text;strokeColor=none;fillColor=none;align=left;verticalAlign=top;spacingLeft=4;spacingRight=4;overflow=hidden;rotatable=0;points=[[0,0.5],[1,0.5]];portConstraint=eastwest;whiteSpace=wrap;html=1;" parent="UWbLIeTRbmQq-SImJMDe-29" vertex="1">
          <mxGeometry y="130" width="130" height="26" as="geometry" />
        </mxCell>
        <mxCell id="UWbLIeTRbmQq-SImJMDe-35" value="" style="line;strokeWidth=1;fillColor=none;align=left;verticalAlign=middle;spacingTop=-1;spacingLeft=3;spacingRight=3;rotatable=0;labelPosition=right;points=[];portConstraint=eastwest;strokeColor=inherit;" parent="UWbLIeTRbmQq-SImJMDe-29" vertex="1">
          <mxGeometry y="156" width="130" height="8" as="geometry" />
        </mxCell>
        <mxCell id="UWbLIeTRbmQq-SImJMDe-36" value="+ linkChild" style="text;strokeColor=none;fillColor=none;align=left;verticalAlign=top;spacingLeft=4;spacingRight=4;overflow=hidden;rotatable=0;points=[[0,0.5],[1,0.5]];portConstraint=eastwest;whiteSpace=wrap;html=1;" parent="UWbLIeTRbmQq-SImJMDe-29" vertex="1">
          <mxGeometry y="164" width="130" height="26" as="geometry" />
        </mxCell>
        <mxCell id="UWbLIeTRbmQq-SImJMDe-37" value="+ unlinkChild" style="text;strokeColor=none;fillColor=none;align=left;verticalAlign=top;spacingLeft=4;spacingRight=4;overflow=hidden;rotatable=0;points=[[0,0.5],[1,0.5]];portConstraint=eastwest;whiteSpace=wrap;html=1;" parent="UWbLIeTRbmQq-SImJMDe-29" vertex="1">
          <mxGeometry y="190" width="130" height="26" as="geometry" />
        </mxCell>
        <mxCell id="UWbLIeTRbmQq-SImJMDe-39" value="Extends" style="endArrow=block;endSize=16;endFill=0;html=1;rounded=0;exitX=0.5;exitY=0;exitDx=0;exitDy=0;entryX=0.49;entryY=0.997;entryDx=0;entryDy=0;entryPerimeter=0;" parent="WIyWlLk6GJQsqaUBKTNV-1" source="UWbLIeTRbmQq-SImJMDe-29" target="UWbLIeTRbmQq-SImJMDe-28" edge="1">
          <mxGeometry width="160" relative="1" as="geometry">
            <mxPoint x="800" y="200" as="sourcePoint" />
            <mxPoint x="750" y="200" as="targetPoint" />
          </mxGeometry>
        </mxCell>
        <mxCell id="UWbLIeTRbmQq-SImJMDe-53" value="" style="endArrow=open;endFill=1;endSize=12;html=1;rounded=0;exitX=0;exitY=0.5;exitDx=0;exitDy=0;entryX=1;entryY=0.5;entryDx=0;entryDy=0;" parent="WIyWlLk6GJQsqaUBKTNV-1" source="UWbLIeTRbmQq-SImJMDe-2" target="zkfFHV4jXpPFQw0GAbJ--2" edge="1">
          <mxGeometry width="160" relative="1" as="geometry">
            <mxPoint x="380" y="230" as="sourcePoint" />
            <mxPoint x="540" y="230" as="targetPoint" />
            <Array as="points">
              <mxPoint x="360" y="99" />
              <mxPoint x="360" y="125" />
            </Array>
          </mxGeometry>
        </mxCell>
        <mxCell id="UWbLIeTRbmQq-SImJMDe-54" value="*" style="edgeLabel;html=1;align=center;verticalAlign=middle;resizable=0;points=[];" parent="UWbLIeTRbmQq-SImJMDe-53" vertex="1" connectable="0">
          <mxGeometry x="0.5625" y="3" relative="1" as="geometry">
            <mxPoint x="-1" y="5" as="offset" />
          </mxGeometry>
        </mxCell>
        <mxCell id="UWbLIeTRbmQq-SImJMDe-55" value="" style="endArrow=open;endFill=1;endSize=12;html=1;rounded=0;exitX=1;exitY=0.5;exitDx=0;exitDy=0;entryX=0;entryY=0.95;entryDx=0;entryDy=0;entryPerimeter=0;" parent="WIyWlLk6GJQsqaUBKTNV-1" source="UWbLIeTRbmQq-SImJMDe-14" target="UWbLIeTRbmQq-SImJMDe-32" edge="1">
          <mxGeometry width="160" relative="1" as="geometry">
            <mxPoint x="780" y="290" as="sourcePoint" />
            <mxPoint x="940" y="290" as="targetPoint" />
            <Array as="points">
              <mxPoint x="600" y="260" />
              <mxPoint x="600" y="320" />
            </Array>
          </mxGeometry>
        </mxCell>
        <mxCell id="UWbLIeTRbmQq-SImJMDe-56" value="1" style="edgeLabel;html=1;align=center;verticalAlign=middle;resizable=0;points=[];" parent="UWbLIeTRbmQq-SImJMDe-55" vertex="1" connectable="0">
          <mxGeometry x="0.7961" y="-2" relative="1" as="geometry">
            <mxPoint y="15" as="offset" />
          </mxGeometry>
        </mxCell>
        <mxCell id="UWbLIeTRbmQq-SImJMDe-57" value="Drawable" style="swimlane;fontStyle=0;childLayout=stackLayout;horizontal=1;startSize=26;fillColor=none;horizontalStack=0;resizeParent=1;resizeParentMax=0;resizeLast=0;collapsible=1;marginBottom=0;whiteSpace=wrap;html=1;" parent="WIyWlLk6GJQsqaUBKTNV-1" vertex="1">
          <mxGeometry x="440" y="470" width="130" height="112" as="geometry" />
        </mxCell>
        <mxCell id="UWbLIeTRbmQq-SImJMDe-58" value="+ shape" style="text;strokeColor=none;fillColor=none;align=left;verticalAlign=top;spacingLeft=4;spacingRight=4;overflow=hidden;rotatable=0;points=[[0,0.5],[1,0.5]];portConstraint=eastwest;whiteSpace=wrap;html=1;" parent="UWbLIeTRbmQq-SImJMDe-57" vertex="1">
          <mxGeometry y="26" width="130" height="26" as="geometry" />
        </mxCell>
        <mxCell id="UWbLIeTRbmQq-SImJMDe-59" value="+ transformedShape" style="text;strokeColor=none;fillColor=none;align=left;verticalAlign=top;spacingLeft=4;spacingRight=4;overflow=hidden;rotatable=0;points=[[0,0.5],[1,0.5]];portConstraint=eastwest;whiteSpace=wrap;html=1;" parent="UWbLIeTRbmQq-SImJMDe-57" vertex="1">
          <mxGeometry y="52" width="130" height="26" as="geometry" />
        </mxCell>
        <mxCell id="UWbLIeTRbmQq-SImJMDe-64" value="" style="line;strokeWidth=1;fillColor=none;align=left;verticalAlign=middle;spacingTop=-1;spacingLeft=3;spacingRight=3;rotatable=0;labelPosition=right;points=[];portConstraint=eastwest;strokeColor=inherit;" parent="UWbLIeTRbmQq-SImJMDe-57" vertex="1">
          <mxGeometry y="78" width="130" height="8" as="geometry" />
        </mxCell>
        <mxCell id="UWbLIeTRbmQq-SImJMDe-60" value="+ draw" style="text;strokeColor=none;fillColor=none;align=left;verticalAlign=top;spacingLeft=4;spacingRight=4;overflow=hidden;rotatable=0;points=[[0,0.5],[1,0.5]];portConstraint=eastwest;whiteSpace=wrap;html=1;" parent="UWbLIeTRbmQq-SImJMDe-57" vertex="1">
          <mxGeometry y="86" width="130" height="26" as="geometry" />
        </mxCell>
        <mxCell id="UWbLIeTRbmQq-SImJMDe-62" value="Extends" style="endArrow=block;endSize=16;endFill=0;html=1;rounded=0;entryX=0.5;entryY=1;entryDx=0;entryDy=0;" parent="WIyWlLk6GJQsqaUBKTNV-1" source="UWbLIeTRbmQq-SImJMDe-59" target="zkfFHV4jXpPFQw0GAbJ--0" edge="1">
          <mxGeometry width="160" relative="1" as="geometry">
            <mxPoint x="280" y="535" as="sourcePoint" />
            <mxPoint x="255" y="180" as="targetPoint" />
            <Array as="points">
              <mxPoint x="255" y="535" />
            </Array>
          </mxGeometry>
        </mxCell>
        <mxCell id="UWbLIeTRbmQq-SImJMDe-65" value="Shape" style="swimlane;fontStyle=0;childLayout=stackLayout;horizontal=1;startSize=26;fillColor=none;horizontalStack=0;resizeParent=1;resizeParentMax=0;resizeLast=0;collapsible=1;marginBottom=0;whiteSpace=wrap;html=1;" parent="WIyWlLk6GJQsqaUBKTNV-1" vertex="1">
          <mxGeometry x="630" y="470" width="130" height="104" as="geometry">
            <mxRectangle x="630" y="470" width="80" height="30" as="alternateBounds" />
          </mxGeometry>
        </mxCell>
        <mxCell id="UWbLIeTRbmQq-SImJMDe-66" value="+ verticesList" style="text;strokeColor=none;fillColor=none;align=left;verticalAlign=top;spacingLeft=4;spacingRight=4;overflow=hidden;rotatable=0;points=[[0,0.5],[1,0.5]];portConstraint=eastwest;whiteSpace=wrap;html=1;" parent="UWbLIeTRbmQq-SImJMDe-65" vertex="1">
          <mxGeometry y="26" width="130" height="26" as="geometry" />
        </mxCell>
        <mxCell id="UWbLIeTRbmQq-SImJMDe-67" value="+ transformation" style="text;strokeColor=none;fillColor=none;align=left;verticalAlign=top;spacingLeft=4;spacingRight=4;overflow=hidden;rotatable=0;points=[[0,0.5],[1,0.5]];portConstraint=eastwest;whiteSpace=wrap;html=1;" parent="UWbLIeTRbmQq-SImJMDe-65" vertex="1">
          <mxGeometry y="52" width="130" height="26" as="geometry" />
        </mxCell>
        <mxCell id="UWbLIeTRbmQq-SImJMDe-68" value="+ transformed" style="text;strokeColor=none;fillColor=none;align=left;verticalAlign=top;spacingLeft=4;spacingRight=4;overflow=hidden;rotatable=0;points=[[0,0.5],[1,0.5]];portConstraint=eastwest;whiteSpace=wrap;html=1;" parent="UWbLIeTRbmQq-SImJMDe-65" vertex="1">
          <mxGeometry y="78" width="130" height="26" as="geometry" />
        </mxCell>
        <mxCell id="UWbLIeTRbmQq-SImJMDe-70" value="" style="endArrow=open;endFill=1;endSize=12;html=1;rounded=0;entryX=1;entryY=0.5;entryDx=0;entryDy=0;exitX=1;exitY=0.5;exitDx=0;exitDy=0;" parent="WIyWlLk6GJQsqaUBKTNV-1" source="UWbLIeTRbmQq-SImJMDe-67" target="UWbLIeTRbmQq-SImJMDe-33" edge="1">
          <mxGeometry width="160" relative="1" as="geometry">
            <mxPoint x="760" y="535" as="sourcePoint" />
            <mxPoint x="410" y="65" as="targetPoint" />
            <Array as="points">
              <mxPoint x="790" y="535" />
              <mxPoint x="790" y="334" />
            </Array>
          </mxGeometry>
        </mxCell>
        <mxCell id="UWbLIeTRbmQq-SImJMDe-73" value="1" style="edgeLabel;html=1;align=center;verticalAlign=middle;resizable=0;points=[];" parent="UWbLIeTRbmQq-SImJMDe-70" vertex="1" connectable="0">
          <mxGeometry x="0.8565" y="5" relative="1" as="geometry">
            <mxPoint y="11" as="offset" />
          </mxGeometry>
        </mxCell>
        <mxCell id="UWbLIeTRbmQq-SImJMDe-71" value="" style="endArrow=open;endFill=1;endSize=12;html=1;rounded=0;exitX=1;exitY=0.5;exitDx=0;exitDy=0;entryX=0;entryY=0.5;entryDx=0;entryDy=0;" parent="WIyWlLk6GJQsqaUBKTNV-1" source="UWbLIeTRbmQq-SImJMDe-58" target="UWbLIeTRbmQq-SImJMDe-67" edge="1">
          <mxGeometry width="160" relative="1" as="geometry">
            <mxPoint x="570" y="509" as="sourcePoint" />
            <mxPoint x="410" y="39" as="targetPoint" />
            <Array as="points">
              <mxPoint x="600" y="510" />
              <mxPoint x="600" y="535" />
            </Array>
          </mxGeometry>
        </mxCell>
        <mxCell id="UWbLIeTRbmQq-SImJMDe-72" value="1" style="edgeLabel;html=1;align=center;verticalAlign=middle;resizable=0;points=[];" parent="UWbLIeTRbmQq-SImJMDe-71" vertex="1" connectable="0">
          <mxGeometry x="0.6118" y="-4" relative="1" as="geometry">
            <mxPoint x="6" y="9" as="offset" />
          </mxGeometry>
        </mxCell>
        <mxCell id="UWbLIeTRbmQq-SImJMDe-75" value="Collision" style="swimlane;fontStyle=1;align=center;verticalAlign=top;childLayout=stackLayout;horizontal=1;startSize=26;horizontalStack=0;resizeParent=1;resizeParentMax=0;resizeLast=0;collapsible=1;marginBottom=0;whiteSpace=wrap;html=1;" parent="WIyWlLk6GJQsqaUBKTNV-1" vertex="1" collapsed="1">
          <mxGeometry x="440" y="620" width="90" height="30" as="geometry">
            <mxRectangle x="320" y="620" width="130" height="86" as="alternateBounds" />
          </mxGeometry>
        </mxCell>
        <mxCell id="UWbLIeTRbmQq-SImJMDe-76" value="+ field: type" style="text;strokeColor=none;fillColor=none;align=left;verticalAlign=top;spacingLeft=4;spacingRight=4;overflow=hidden;rotatable=0;points=[[0,0.5],[1,0.5]];portConstraint=eastwest;whiteSpace=wrap;html=1;" parent="UWbLIeTRbmQq-SImJMDe-75" vertex="1">
          <mxGeometry y="26" width="130" height="26" as="geometry" />
        </mxCell>
        <mxCell id="UWbLIeTRbmQq-SImJMDe-77" value="" style="line;strokeWidth=1;fillColor=none;align=left;verticalAlign=middle;spacingTop=-1;spacingLeft=3;spacingRight=3;rotatable=0;labelPosition=right;points=[];portConstraint=eastwest;strokeColor=inherit;" parent="UWbLIeTRbmQq-SImJMDe-75" vertex="1">
          <mxGeometry y="52" width="130" height="8" as="geometry" />
        </mxCell>
        <mxCell id="UWbLIeTRbmQq-SImJMDe-78" value="+ method(type): type" style="text;strokeColor=none;fillColor=none;align=left;verticalAlign=top;spacingLeft=4;spacingRight=4;overflow=hidden;rotatable=0;points=[[0,0.5],[1,0.5]];portConstraint=eastwest;whiteSpace=wrap;html=1;" parent="UWbLIeTRbmQq-SImJMDe-75" vertex="1">
          <mxGeometry y="60" width="130" height="26" as="geometry" />
        </mxCell>
        <mxCell id="UWbLIeTRbmQq-SImJMDe-79" value="" style="endArrow=block;endSize=16;endFill=0;html=1;rounded=0;exitX=0;exitY=0.5;exitDx=0;exitDy=0;entryX=0.5;entryY=1;entryDx=0;entryDy=0;" parent="WIyWlLk6GJQsqaUBKTNV-1" source="UWbLIeTRbmQq-SImJMDe-75" target="zkfFHV4jXpPFQw0GAbJ--0" edge="1">
          <mxGeometry width="160" relative="1" as="geometry">
            <mxPoint x="240" y="620" as="sourcePoint" />
            <mxPoint x="400" y="620" as="targetPoint" />
            <Array as="points">
              <mxPoint x="255" y="635" />
            </Array>
          </mxGeometry>
        </mxCell>
        <mxCell id="UWbLIeTRbmQq-SImJMDe-80" value="RigidBody" style="swimlane;fontStyle=1;align=center;verticalAlign=top;childLayout=stackLayout;horizontal=1;startSize=26;horizontalStack=0;resizeParent=1;resizeParentMax=0;resizeLast=0;collapsible=1;marginBottom=0;whiteSpace=wrap;html=1;" parent="WIyWlLk6GJQsqaUBKTNV-1" vertex="1" collapsed="1">
          <mxGeometry x="440" y="670" width="90" height="30" as="geometry">
            <mxRectangle x="320" y="620" width="130" height="86" as="alternateBounds" />
          </mxGeometry>
        </mxCell>
        <mxCell id="UWbLIeTRbmQq-SImJMDe-81" value="+ field: type" style="text;strokeColor=none;fillColor=none;align=left;verticalAlign=top;spacingLeft=4;spacingRight=4;overflow=hidden;rotatable=0;points=[[0,0.5],[1,0.5]];portConstraint=eastwest;whiteSpace=wrap;html=1;" parent="UWbLIeTRbmQq-SImJMDe-80" vertex="1">
          <mxGeometry y="26" width="130" height="26" as="geometry" />
        </mxCell>
        <mxCell id="UWbLIeTRbmQq-SImJMDe-82" value="" style="line;strokeWidth=1;fillColor=none;align=left;verticalAlign=middle;spacingTop=-1;spacingLeft=3;spacingRight=3;rotatable=0;labelPosition=right;points=[];portConstraint=eastwest;strokeColor=inherit;" parent="UWbLIeTRbmQq-SImJMDe-80" vertex="1">
          <mxGeometry y="52" width="130" height="8" as="geometry" />
        </mxCell>
        <mxCell id="UWbLIeTRbmQq-SImJMDe-83" value="+ method(type): type" style="text;strokeColor=none;fillColor=none;align=left;verticalAlign=top;spacingLeft=4;spacingRight=4;overflow=hidden;rotatable=0;points=[[0,0.5],[1,0.5]];portConstraint=eastwest;whiteSpace=wrap;html=1;" parent="UWbLIeTRbmQq-SImJMDe-80" vertex="1">
          <mxGeometry y="60" width="130" height="26" as="geometry" />
        </mxCell>
        <mxCell id="UWbLIeTRbmQq-SImJMDe-84" value="" style="endArrow=block;endSize=16;endFill=0;html=1;rounded=0;exitX=0;exitY=0.5;exitDx=0;exitDy=0;entryX=0.5;entryY=1;entryDx=0;entryDy=0;" parent="WIyWlLk6GJQsqaUBKTNV-1" source="UWbLIeTRbmQq-SImJMDe-80" target="zkfFHV4jXpPFQw0GAbJ--0" edge="1">
          <mxGeometry width="160" relative="1" as="geometry">
            <mxPoint x="210" y="660" as="sourcePoint" />
            <mxPoint x="280" y="210" as="targetPoint" />
            <Array as="points">
              <mxPoint x="255" y="685" />
            </Array>
          </mxGeometry>
        </mxCell>
        <mxCell id="UWbLIeTRbmQq-SImJMDe-89" value="GameObject" style="swimlane;fontStyle=0;childLayout=stackLayout;horizontal=1;startSize=26;fillColor=none;horizontalStack=0;resizeParent=1;resizeParentMax=0;resizeLast=0;collapsible=1;marginBottom=0;whiteSpace=wrap;html=1;" parent="WIyWlLk6GJQsqaUBKTNV-1" vertex="1">
          <mxGeometry x="20" y="60" width="130" height="166" as="geometry" />
        </mxCell>
        <mxCell id="UWbLIeTRbmQq-SImJMDe-90" value="+ id" style="text;strokeColor=none;fillColor=none;align=left;verticalAlign=top;spacingLeft=4;spacingRight=4;overflow=hidden;rotatable=0;points=[[0,0.5],[1,0.5]];portConstraint=eastwest;whiteSpace=wrap;html=1;" parent="UWbLIeTRbmQq-SImJMDe-89" vertex="1">
          <mxGeometry y="26" width="130" height="26" as="geometry" />
        </mxCell>
        <mxCell id="UWbLIeTRbmQq-SImJMDe-91" value="- componentContainer" style="text;strokeColor=none;fillColor=none;align=left;verticalAlign=top;spacingLeft=4;spacingRight=4;overflow=hidden;rotatable=0;points=[[0,0.5],[1,0.5]];portConstraint=eastwest;whiteSpace=wrap;html=1;" parent="UWbLIeTRbmQq-SImJMDe-89" vertex="1">
          <mxGeometry y="52" width="130" height="28" as="geometry" />
        </mxCell>
        <mxCell id="lH7IUdDFfnpZBsQOUHIe-3" value="" style="line;strokeWidth=1;fillColor=none;align=left;verticalAlign=middle;spacingTop=-1;spacingLeft=3;spacingRight=3;rotatable=0;labelPosition=right;points=[];portConstraint=eastwest;strokeColor=inherit;" vertex="1" parent="UWbLIeTRbmQq-SImJMDe-89">
          <mxGeometry y="80" width="130" height="8" as="geometry" />
        </mxCell>
        <mxCell id="UWbLIeTRbmQq-SImJMDe-92" value="+ addComponent" style="text;strokeColor=none;fillColor=none;align=left;verticalAlign=top;spacingLeft=4;spacingRight=4;overflow=hidden;rotatable=0;points=[[0,0.5],[1,0.5]];portConstraint=eastwest;whiteSpace=wrap;html=1;" parent="UWbLIeTRbmQq-SImJMDe-89" vertex="1">
          <mxGeometry y="88" width="130" height="26" as="geometry" />
        </mxCell>
        <mxCell id="lH7IUdDFfnpZBsQOUHIe-5" value="+ removeComponent" style="text;strokeColor=none;fillColor=none;align=left;verticalAlign=top;spacingLeft=4;spacingRight=4;overflow=hidden;rotatable=0;points=[[0,0.5],[1,0.5]];portConstraint=eastwest;whiteSpace=wrap;html=1;" vertex="1" parent="UWbLIeTRbmQq-SImJMDe-89">
          <mxGeometry y="114" width="130" height="26" as="geometry" />
        </mxCell>
        <mxCell id="lH7IUdDFfnpZBsQOUHIe-6" value="+ getComponentById" style="text;strokeColor=none;fillColor=none;align=left;verticalAlign=top;spacingLeft=4;spacingRight=4;overflow=hidden;rotatable=0;points=[[0,0.5],[1,0.5]];portConstraint=eastwest;whiteSpace=wrap;html=1;" vertex="1" parent="UWbLIeTRbmQq-SImJMDe-89">
          <mxGeometry y="140" width="130" height="26" as="geometry" />
        </mxCell>
        <mxCell id="UWbLIeTRbmQq-SImJMDe-93" value="" style="endArrow=open;endFill=1;endSize=12;html=1;rounded=0;exitX=1;exitY=0.5;exitDx=0;exitDy=0;entryX=0;entryY=0.5;entryDx=0;entryDy=0;" parent="WIyWlLk6GJQsqaUBKTNV-1" source="UWbLIeTRbmQq-SImJMDe-91" target="zkfFHV4jXpPFQw0GAbJ--0" edge="1">
          <mxGeometry width="160" relative="1" as="geometry">
            <mxPoint x="140" y="220" as="sourcePoint" />
            <mxPoint x="300" y="220" as="targetPoint" />
            <Array as="points">
              <mxPoint x="170" y="120" />
            </Array>
          </mxGeometry>
        </mxCell>
        <mxCell id="UWbLIeTRbmQq-SImJMDe-94" value="*" style="edgeLabel;html=1;align=center;verticalAlign=middle;resizable=0;points=[];" parent="UWbLIeTRbmQq-SImJMDe-93" vertex="1" connectable="0">
          <mxGeometry x="0.3934" y="-3" relative="1" as="geometry">
            <mxPoint x="2" y="10" as="offset" />
          </mxGeometry>
        </mxCell>
        <mxCell id="lH7IUdDFfnpZBsQOUHIe-0" value="" style="endArrow=open;endFill=1;endSize=12;html=1;rounded=0;exitX=1;exitY=0.5;exitDx=0;exitDy=0;entryX=0.5;entryY=1;entryDx=0;entryDy=0;" edge="1" parent="WIyWlLk6GJQsqaUBKTNV-1" source="UWbLIeTRbmQq-SImJMDe-75" target="UWbLIeTRbmQq-SImJMDe-65">
          <mxGeometry width="160" relative="1" as="geometry">
            <mxPoint x="560" y="630" as="sourcePoint" />
            <mxPoint x="700" y="590" as="targetPoint" />
            <Array as="points">
              <mxPoint x="695" y="635" />
            </Array>
          </mxGeometry>
        </mxCell>
        <mxCell id="lH7IUdDFfnpZBsQOUHIe-1" value="1" style="edgeLabel;html=1;align=center;verticalAlign=middle;resizable=0;points=[];" vertex="1" connectable="0" parent="lH7IUdDFfnpZBsQOUHIe-0">
          <mxGeometry x="0.823" y="-1" relative="1" as="geometry">
            <mxPoint x="4" y="6" as="offset" />
          </mxGeometry>
        </mxCell>
      </root>
    </mxGraphModel>
  </diagram>
  <diagram id="AOj_kjfmf76mB_nKSF1q" name="페이지-2">
    <mxGraphModel dx="1121" dy="672" grid="1" gridSize="10" guides="1" tooltips="1" connect="1" arrows="1" fold="1" page="1" pageScale="1" pageWidth="827" pageHeight="1169" math="0" shadow="0">
      <root>
        <mxCell id="0" />
        <mxCell id="1" parent="0" />
        <mxCell id="spbyd7tNTFZEDkKR8C_T-1" style="edgeStyle=orthogonalEdgeStyle;rounded=0;orthogonalLoop=1;jettySize=auto;html=1;entryX=0;entryY=0.5;entryDx=0;entryDy=0;endArrow=open;endFill=0;" edge="1" parent="1" source="v5NfJW4K3dcm8EKNY1Ts-6" target="v5NfJW4K3dcm8EKNY1Ts-15">
          <mxGeometry relative="1" as="geometry" />
        </mxCell>
        <mxCell id="spbyd7tNTFZEDkKR8C_T-3" value="shape" style="edgeLabel;html=1;align=center;verticalAlign=middle;resizable=0;points=[];" vertex="1" connectable="0" parent="spbyd7tNTFZEDkKR8C_T-1">
          <mxGeometry x="-0.5424" y="2" relative="1" as="geometry">
            <mxPoint x="-8" y="-7" as="offset" />
          </mxGeometry>
        </mxCell>
        <mxCell id="v5NfJW4K3dcm8EKNY1Ts-6" value="drawComp: Drawable" style="swimlane;fontStyle=0;childLayout=stackLayout;horizontal=1;startSize=26;fillColor=none;horizontalStack=0;resizeParent=1;resizeParentMax=0;resizeLast=0;collapsible=1;marginBottom=0;whiteSpace=wrap;html=1;" vertex="1" collapsed="1" parent="1">
          <mxGeometry x="30" y="200" width="150" height="30" as="geometry">
            <mxRectangle x="60" y="200" width="160" height="52" as="alternateBounds" />
          </mxGeometry>
        </mxCell>
        <mxCell id="v5NfJW4K3dcm8EKNY1Ts-10" value="transformation: HierTransformation" style="swimlane;fontStyle=0;childLayout=stackLayout;horizontal=1;startSize=26;fillColor=none;horizontalStack=0;resizeParent=1;resizeParentMax=0;resizeLast=0;collapsible=1;marginBottom=0;whiteSpace=wrap;html=1;" vertex="1" parent="1">
          <mxGeometry x="560" y="80" width="220" height="78" as="geometry">
            <mxRectangle x="560" y="80" width="230" height="30" as="alternateBounds" />
          </mxGeometry>
        </mxCell>
        <mxCell id="v5NfJW4K3dcm8EKNY1Ts-12" value="- parent" style="text;strokeColor=none;fillColor=none;align=left;verticalAlign=top;spacingLeft=4;spacingRight=4;overflow=hidden;rotatable=0;points=[[0,0.5],[1,0.5]];portConstraint=eastwest;whiteSpace=wrap;html=1;" vertex="1" parent="v5NfJW4K3dcm8EKNY1Ts-10">
          <mxGeometry y="26" width="220" height="26" as="geometry" />
        </mxCell>
        <mxCell id="v5NfJW4K3dcm8EKNY1Ts-13" value="- children" style="text;strokeColor=none;fillColor=none;align=left;verticalAlign=top;spacingLeft=4;spacingRight=4;overflow=hidden;rotatable=0;points=[[0,0.5],[1,0.5]];portConstraint=eastwest;whiteSpace=wrap;html=1;" vertex="1" parent="v5NfJW4K3dcm8EKNY1Ts-10">
          <mxGeometry y="52" width="220" height="26" as="geometry" />
        </mxCell>
        <mxCell id="spbyd7tNTFZEDkKR8C_T-6" style="edgeStyle=orthogonalEdgeStyle;rounded=0;orthogonalLoop=1;jettySize=auto;html=1;exitX=1;exitY=0.5;exitDx=0;exitDy=0;entryX=0;entryY=0.5;entryDx=0;entryDy=0;" edge="1" parent="1" source="v5NfJW4K3dcm8EKNY1Ts-14" target="v5NfJW4K3dcm8EKNY1Ts-10">
          <mxGeometry relative="1" as="geometry">
            <mxPoint x="520" y="90" as="targetPoint" />
          </mxGeometry>
        </mxCell>
        <mxCell id="spbyd7tNTFZEDkKR8C_T-7" value="transformation" style="edgeLabel;html=1;align=center;verticalAlign=middle;resizable=0;points=[];" vertex="1" connectable="0" parent="spbyd7tNTFZEDkKR8C_T-6">
          <mxGeometry x="-0.5247" y="-1" relative="1" as="geometry">
            <mxPoint x="5" y="-10" as="offset" />
          </mxGeometry>
        </mxCell>
        <mxCell id="spbyd7tNTFZEDkKR8C_T-8" value="1" style="edgeLabel;html=1;align=center;verticalAlign=middle;resizable=0;points=[];" vertex="1" connectable="0" parent="spbyd7tNTFZEDkKR8C_T-6">
          <mxGeometry x="0.794" relative="1" as="geometry">
            <mxPoint y="11" as="offset" />
          </mxGeometry>
        </mxCell>
        <mxCell id="v5NfJW4K3dcm8EKNY1Ts-14" value="posComp: TransformationComp" style="swimlane;fontStyle=0;childLayout=stackLayout;horizontal=1;startSize=26;fillColor=none;horizontalStack=0;resizeParent=1;resizeParentMax=0;resizeLast=0;collapsible=1;marginBottom=0;whiteSpace=wrap;html=1;" vertex="1" collapsed="1" parent="1">
          <mxGeometry x="240" y="80" width="210" height="30" as="geometry">
            <mxRectangle x="270" y="80" width="200" height="52" as="alternateBounds" />
          </mxGeometry>
        </mxCell>
        <mxCell id="spbyd7tNTFZEDkKR8C_T-9" style="edgeStyle=orthogonalEdgeStyle;rounded=0;orthogonalLoop=1;jettySize=auto;html=1;exitX=1;exitY=0.5;exitDx=0;exitDy=0;endArrow=open;endFill=0;" edge="1" parent="1" source="v5NfJW4K3dcm8EKNY1Ts-15" target="v5NfJW4K3dcm8EKNY1Ts-17">
          <mxGeometry relative="1" as="geometry" />
        </mxCell>
        <mxCell id="spbyd7tNTFZEDkKR8C_T-10" value="transformation" style="edgeLabel;html=1;align=center;verticalAlign=middle;resizable=0;points=[];" vertex="1" connectable="0" parent="spbyd7tNTFZEDkKR8C_T-9">
          <mxGeometry x="-0.7395" y="6" relative="1" as="geometry">
            <mxPoint x="16" y="-4" as="offset" />
          </mxGeometry>
        </mxCell>
        <mxCell id="spbyd7tNTFZEDkKR8C_T-11" value="1" style="edgeLabel;html=1;align=center;verticalAlign=middle;resizable=0;points=[];" vertex="1" connectable="0" parent="spbyd7tNTFZEDkKR8C_T-9">
          <mxGeometry x="0.7778" y="-1" relative="1" as="geometry">
            <mxPoint x="9" y="10" as="offset" />
          </mxGeometry>
        </mxCell>
        <mxCell id="v5NfJW4K3dcm8EKNY1Ts-15" value="shape: Shape" style="swimlane;fontStyle=0;childLayout=stackLayout;horizontal=1;startSize=26;fillColor=none;horizontalStack=0;resizeParent=1;resizeParentMax=0;resizeLast=0;collapsible=1;marginBottom=0;whiteSpace=wrap;html=1;" vertex="1" collapsed="1" parent="1">
          <mxGeometry x="303" y="200" width="110" height="30" as="geometry">
            <mxRectangle x="320" y="200" width="160" height="52" as="alternateBounds" />
          </mxGeometry>
        </mxCell>
        <mxCell id="UlcX-rTCmB3vTugPQl5T-1" style="edgeStyle=orthogonalEdgeStyle;rounded=0;orthogonalLoop=1;jettySize=auto;html=1;entryX=0;entryY=0.5;entryDx=0;entryDy=0;endArrow=open;endFill=0;" edge="1" parent="1" source="v5NfJW4K3dcm8EKNY1Ts-16" target="v5NfJW4K3dcm8EKNY1Ts-15">
          <mxGeometry relative="1" as="geometry" />
        </mxCell>
        <mxCell id="spbyd7tNTFZEDkKR8C_T-4" value="shape" style="edgeLabel;html=1;align=center;verticalAlign=middle;resizable=0;points=[];" vertex="1" connectable="0" parent="UlcX-rTCmB3vTugPQl5T-1">
          <mxGeometry x="-0.7461" relative="1" as="geometry">
            <mxPoint x="-7" y="-9" as="offset" />
          </mxGeometry>
        </mxCell>
        <mxCell id="spbyd7tNTFZEDkKR8C_T-5" value="1" style="edgeLabel;html=1;align=center;verticalAlign=middle;resizable=0;points=[];" vertex="1" connectable="0" parent="UlcX-rTCmB3vTugPQl5T-1">
          <mxGeometry x="0.8341" y="-2" relative="1" as="geometry">
            <mxPoint y="-7" as="offset" />
          </mxGeometry>
        </mxCell>
        <mxCell id="v5NfJW4K3dcm8EKNY1Ts-16" value="collisionComp: Collision" style="swimlane;fontStyle=0;childLayout=stackLayout;horizontal=1;startSize=26;fillColor=none;horizontalStack=0;resizeParent=1;resizeParentMax=0;resizeLast=0;collapsible=1;marginBottom=0;whiteSpace=wrap;html=1;" vertex="1" collapsed="1" parent="1">
          <mxGeometry x="30" y="280" width="150" height="30" as="geometry">
            <mxRectangle x="60" y="280" width="160" height="52" as="alternateBounds" />
          </mxGeometry>
        </mxCell>
        <mxCell id="v5NfJW4K3dcm8EKNY1Ts-17" value="transformation: HierTransformation" style="swimlane;fontStyle=0;childLayout=stackLayout;horizontal=1;startSize=26;fillColor=none;horizontalStack=0;resizeParent=1;resizeParentMax=0;resizeLast=0;collapsible=1;marginBottom=0;whiteSpace=wrap;html=1;" vertex="1" parent="1">
          <mxGeometry x="560" y="200" width="220" height="78" as="geometry">
            <mxRectangle x="560" y="200" width="230" height="30" as="alternateBounds" />
          </mxGeometry>
        </mxCell>
        <mxCell id="v5NfJW4K3dcm8EKNY1Ts-18" value="- parent" style="text;strokeColor=none;fillColor=none;align=left;verticalAlign=top;spacingLeft=4;spacingRight=4;overflow=hidden;rotatable=0;points=[[0,0.5],[1,0.5]];portConstraint=eastwest;whiteSpace=wrap;html=1;" vertex="1" parent="v5NfJW4K3dcm8EKNY1Ts-17">
          <mxGeometry y="26" width="220" height="26" as="geometry" />
        </mxCell>
        <mxCell id="v5NfJW4K3dcm8EKNY1Ts-19" value="- children" style="text;strokeColor=none;fillColor=none;align=left;verticalAlign=top;spacingLeft=4;spacingRight=4;overflow=hidden;rotatable=0;points=[[0,0.5],[1,0.5]];portConstraint=eastwest;whiteSpace=wrap;html=1;" vertex="1" parent="v5NfJW4K3dcm8EKNY1Ts-17">
          <mxGeometry y="52" width="220" height="26" as="geometry" />
        </mxCell>
        <mxCell id="CWUp0B2wZZS31DSeyf_F-1" style="edgeStyle=orthogonalEdgeStyle;rounded=0;orthogonalLoop=1;jettySize=auto;html=1;exitX=1;exitY=0.5;exitDx=0;exitDy=0;entryX=1;entryY=0.5;entryDx=0;entryDy=0;" edge="1" parent="1" source="v5NfJW4K3dcm8EKNY1Ts-18" target="v5NfJW4K3dcm8EKNY1Ts-13">
          <mxGeometry relative="1" as="geometry" />
        </mxCell>
        <mxCell id="CWUp0B2wZZS31DSeyf_F-2" value="parent" style="edgeLabel;html=1;align=center;verticalAlign=middle;resizable=0;points=[];" vertex="1" connectable="0" parent="CWUp0B2wZZS31DSeyf_F-1">
          <mxGeometry x="-0.8876" y="2" relative="1" as="geometry">
            <mxPoint y="-13" as="offset" />
          </mxGeometry>
        </mxCell>
        <mxCell id="bbQxgvCGI-7NSTcCgpPk-1" value="*" style="edgeLabel;html=1;align=center;verticalAlign=middle;resizable=0;points=[];" vertex="1" connectable="0" parent="CWUp0B2wZZS31DSeyf_F-1">
          <mxGeometry x="0.8389" relative="1" as="geometry">
            <mxPoint as="offset" />
          </mxGeometry>
        </mxCell>
      </root>
    </mxGraphModel>
  </diagram>
  <diagram id="D05EQtsPULZCTPiI0DeD" name="페이지-3">
    <mxGraphModel dx="934" dy="560" grid="1" gridSize="10" guides="1" tooltips="1" connect="1" arrows="1" fold="1" page="1" pageScale="1" pageWidth="827" pageHeight="1169" math="0" shadow="0">
      <root>
        <mxCell id="0" />
        <mxCell id="1" parent="0" />
        <mxCell id="z_rCMweL1o7PcE1nNZRx-1" style="edgeStyle=orthogonalEdgeStyle;rounded=0;orthogonalLoop=1;jettySize=auto;html=1;entryX=0;entryY=0.5;entryDx=0;entryDy=0;endArrow=open;endFill=0;" edge="1" parent="1" source="z_rCMweL1o7PcE1nNZRx-3" target="z_rCMweL1o7PcE1nNZRx-14">
          <mxGeometry relative="1" as="geometry" />
        </mxCell>
        <mxCell id="z_rCMweL1o7PcE1nNZRx-2" value="shape" style="edgeLabel;html=1;align=center;verticalAlign=middle;resizable=0;points=[];" vertex="1" connectable="0" parent="z_rCMweL1o7PcE1nNZRx-1">
          <mxGeometry x="-0.5424" y="2" relative="1" as="geometry">
            <mxPoint x="-8" y="-7" as="offset" />
          </mxGeometry>
        </mxCell>
        <mxCell id="2211oM2EaEWKlXJPVHAY-1" value="1" style="edgeLabel;html=1;align=center;verticalAlign=middle;resizable=0;points=[];" vertex="1" connectable="0" parent="z_rCMweL1o7PcE1nNZRx-1">
          <mxGeometry x="0.8328" y="-2" relative="1" as="geometry">
            <mxPoint y="-7" as="offset" />
          </mxGeometry>
        </mxCell>
        <mxCell id="z_rCMweL1o7PcE1nNZRx-3" value="drawComp: Drawable" style="swimlane;fontStyle=0;childLayout=stackLayout;horizontal=1;startSize=26;fillColor=none;horizontalStack=0;resizeParent=1;resizeParentMax=0;resizeLast=0;collapsible=1;marginBottom=0;whiteSpace=wrap;html=1;" vertex="1" collapsed="1" parent="1">
          <mxGeometry x="30" y="200" width="150" height="30" as="geometry">
            <mxRectangle x="60" y="200" width="160" height="52" as="alternateBounds" />
          </mxGeometry>
        </mxCell>
        <mxCell id="z_rCMweL1o7PcE1nNZRx-4" value="transformation: HierTransformation" style="swimlane;fontStyle=0;childLayout=stackLayout;horizontal=1;startSize=26;fillColor=none;horizontalStack=0;resizeParent=1;resizeParentMax=0;resizeLast=0;collapsible=1;marginBottom=0;whiteSpace=wrap;html=1;" vertex="1" parent="1">
          <mxGeometry x="560" y="80" width="220" height="78" as="geometry">
            <mxRectangle x="560" y="80" width="230" height="30" as="alternateBounds" />
          </mxGeometry>
        </mxCell>
        <mxCell id="z_rCMweL1o7PcE1nNZRx-5" value="- parent" style="text;strokeColor=none;fillColor=none;align=left;verticalAlign=top;spacingLeft=4;spacingRight=4;overflow=hidden;rotatable=0;points=[[0,0.5],[1,0.5]];portConstraint=eastwest;whiteSpace=wrap;html=1;" vertex="1" parent="z_rCMweL1o7PcE1nNZRx-4">
          <mxGeometry y="26" width="220" height="26" as="geometry" />
        </mxCell>
        <mxCell id="z_rCMweL1o7PcE1nNZRx-6" value="- children" style="text;strokeColor=none;fillColor=none;align=left;verticalAlign=top;spacingLeft=4;spacingRight=4;overflow=hidden;rotatable=0;points=[[0,0.5],[1,0.5]];portConstraint=eastwest;whiteSpace=wrap;html=1;" vertex="1" parent="z_rCMweL1o7PcE1nNZRx-4">
          <mxGeometry y="52" width="220" height="26" as="geometry" />
        </mxCell>
        <mxCell id="z_rCMweL1o7PcE1nNZRx-7" style="edgeStyle=orthogonalEdgeStyle;rounded=0;orthogonalLoop=1;jettySize=auto;html=1;exitX=1;exitY=0.5;exitDx=0;exitDy=0;entryX=0;entryY=0.5;entryDx=0;entryDy=0;" edge="1" parent="1" source="z_rCMweL1o7PcE1nNZRx-10" target="z_rCMweL1o7PcE1nNZRx-4">
          <mxGeometry relative="1" as="geometry">
            <mxPoint x="520" y="90" as="targetPoint" />
          </mxGeometry>
        </mxCell>
        <mxCell id="z_rCMweL1o7PcE1nNZRx-8" value="transformation" style="edgeLabel;html=1;align=center;verticalAlign=middle;resizable=0;points=[];" vertex="1" connectable="0" parent="z_rCMweL1o7PcE1nNZRx-7">
          <mxGeometry x="-0.5247" y="-1" relative="1" as="geometry">
            <mxPoint x="5" y="-10" as="offset" />
          </mxGeometry>
        </mxCell>
        <mxCell id="z_rCMweL1o7PcE1nNZRx-9" value="1" style="edgeLabel;html=1;align=center;verticalAlign=middle;resizable=0;points=[];" vertex="1" connectable="0" parent="z_rCMweL1o7PcE1nNZRx-7">
          <mxGeometry x="0.794" relative="1" as="geometry">
            <mxPoint y="11" as="offset" />
          </mxGeometry>
        </mxCell>
        <mxCell id="z_rCMweL1o7PcE1nNZRx-10" value="posComp: TransformationComp" style="swimlane;fontStyle=0;childLayout=stackLayout;horizontal=1;startSize=26;fillColor=none;horizontalStack=0;resizeParent=1;resizeParentMax=0;resizeLast=0;collapsible=1;marginBottom=0;whiteSpace=wrap;html=1;" vertex="1" collapsed="1" parent="1">
          <mxGeometry x="240" y="80" width="210" height="30" as="geometry">
            <mxRectangle x="270" y="80" width="200" height="52" as="alternateBounds" />
          </mxGeometry>
        </mxCell>
        <mxCell id="z_rCMweL1o7PcE1nNZRx-11" style="edgeStyle=orthogonalEdgeStyle;rounded=0;orthogonalLoop=1;jettySize=auto;html=1;exitX=1;exitY=0.5;exitDx=0;exitDy=0;endArrow=open;endFill=0;" edge="1" parent="1" source="z_rCMweL1o7PcE1nNZRx-14" target="z_rCMweL1o7PcE1nNZRx-19">
          <mxGeometry relative="1" as="geometry" />
        </mxCell>
        <mxCell id="z_rCMweL1o7PcE1nNZRx-12" value="transformation" style="edgeLabel;html=1;align=center;verticalAlign=middle;resizable=0;points=[];" vertex="1" connectable="0" parent="z_rCMweL1o7PcE1nNZRx-11">
          <mxGeometry x="-0.7395" y="6" relative="1" as="geometry">
            <mxPoint x="16" y="-4" as="offset" />
          </mxGeometry>
        </mxCell>
        <mxCell id="z_rCMweL1o7PcE1nNZRx-13" value="1" style="edgeLabel;html=1;align=center;verticalAlign=middle;resizable=0;points=[];" vertex="1" connectable="0" parent="z_rCMweL1o7PcE1nNZRx-11">
          <mxGeometry x="0.7778" y="-1" relative="1" as="geometry">
            <mxPoint x="9" y="10" as="offset" />
          </mxGeometry>
        </mxCell>
        <mxCell id="z_rCMweL1o7PcE1nNZRx-14" value="shapeA&lt;span style=&quot;background-color: initial;&quot;&gt;: Shape&lt;/span&gt;" style="swimlane;fontStyle=0;childLayout=stackLayout;horizontal=1;startSize=26;fillColor=none;horizontalStack=0;resizeParent=1;resizeParentMax=0;resizeLast=0;collapsible=1;marginBottom=0;whiteSpace=wrap;html=1;" vertex="1" collapsed="1" parent="1">
          <mxGeometry x="303" y="200" width="110" height="30" as="geometry">
            <mxRectangle x="320" y="200" width="160" height="52" as="alternateBounds" />
          </mxGeometry>
        </mxCell>
        <mxCell id="z_rCMweL1o7PcE1nNZRx-15" style="edgeStyle=orthogonalEdgeStyle;rounded=0;orthogonalLoop=1;jettySize=auto;html=1;entryX=0;entryY=0.5;entryDx=0;entryDy=0;endArrow=open;endFill=0;" edge="1" parent="1" source="z_rCMweL1o7PcE1nNZRx-18" target="z_rCMweL1o7PcE1nNZRx-35">
          <mxGeometry relative="1" as="geometry" />
        </mxCell>
        <mxCell id="z_rCMweL1o7PcE1nNZRx-16" value="shape" style="edgeLabel;html=1;align=center;verticalAlign=middle;resizable=0;points=[];" vertex="1" connectable="0" parent="z_rCMweL1o7PcE1nNZRx-15">
          <mxGeometry x="-0.7461" relative="1" as="geometry">
            <mxPoint x="5" y="-10" as="offset" />
          </mxGeometry>
        </mxCell>
        <mxCell id="z_rCMweL1o7PcE1nNZRx-17" value="1" style="edgeLabel;html=1;align=center;verticalAlign=middle;resizable=0;points=[];" vertex="1" connectable="0" parent="z_rCMweL1o7PcE1nNZRx-15">
          <mxGeometry x="0.8341" y="-2" relative="1" as="geometry">
            <mxPoint y="-7" as="offset" />
          </mxGeometry>
        </mxCell>
        <mxCell id="z_rCMweL1o7PcE1nNZRx-18" value="collisionComp: Collision" style="swimlane;fontStyle=0;childLayout=stackLayout;horizontal=1;startSize=26;fillColor=none;horizontalStack=0;resizeParent=1;resizeParentMax=0;resizeLast=0;collapsible=1;marginBottom=0;whiteSpace=wrap;html=1;" vertex="1" collapsed="1" parent="1">
          <mxGeometry x="30" y="310" width="150" height="30" as="geometry">
            <mxRectangle x="60" y="280" width="160" height="52" as="alternateBounds" />
          </mxGeometry>
        </mxCell>
        <mxCell id="z_rCMweL1o7PcE1nNZRx-19" value="transformation: HierTransformation" style="swimlane;fontStyle=0;childLayout=stackLayout;horizontal=1;startSize=26;fillColor=none;horizontalStack=0;resizeParent=1;resizeParentMax=0;resizeLast=0;collapsible=1;marginBottom=0;whiteSpace=wrap;html=1;" vertex="1" parent="1">
          <mxGeometry x="560" y="200" width="220" height="78" as="geometry">
            <mxRectangle x="560" y="200" width="230" height="30" as="alternateBounds" />
          </mxGeometry>
        </mxCell>
        <mxCell id="z_rCMweL1o7PcE1nNZRx-20" value="- parent" style="text;strokeColor=none;fillColor=none;align=left;verticalAlign=top;spacingLeft=4;spacingRight=4;overflow=hidden;rotatable=0;points=[[0,0.5],[1,0.5]];portConstraint=eastwest;whiteSpace=wrap;html=1;" vertex="1" parent="z_rCMweL1o7PcE1nNZRx-19">
          <mxGeometry y="26" width="220" height="26" as="geometry" />
        </mxCell>
        <mxCell id="z_rCMweL1o7PcE1nNZRx-21" value="- children" style="text;strokeColor=none;fillColor=none;align=left;verticalAlign=top;spacingLeft=4;spacingRight=4;overflow=hidden;rotatable=0;points=[[0,0.5],[1,0.5]];portConstraint=eastwest;whiteSpace=wrap;html=1;" vertex="1" parent="z_rCMweL1o7PcE1nNZRx-19">
          <mxGeometry y="52" width="220" height="26" as="geometry" />
        </mxCell>
        <mxCell id="z_rCMweL1o7PcE1nNZRx-22" style="edgeStyle=orthogonalEdgeStyle;rounded=0;orthogonalLoop=1;jettySize=auto;html=1;exitX=1;exitY=0.5;exitDx=0;exitDy=0;" edge="1" parent="1" source="z_rCMweL1o7PcE1nNZRx-20" target="z_rCMweL1o7PcE1nNZRx-6">
          <mxGeometry relative="1" as="geometry" />
        </mxCell>
        <mxCell id="z_rCMweL1o7PcE1nNZRx-23" value="parent" style="edgeLabel;html=1;align=center;verticalAlign=middle;resizable=0;points=[];" vertex="1" connectable="0" parent="z_rCMweL1o7PcE1nNZRx-22">
          <mxGeometry x="-0.8876" y="2" relative="1" as="geometry">
            <mxPoint y="-13" as="offset" />
          </mxGeometry>
        </mxCell>
        <mxCell id="z_rCMweL1o7PcE1nNZRx-32" style="edgeStyle=orthogonalEdgeStyle;rounded=0;orthogonalLoop=1;jettySize=auto;html=1;exitX=1;exitY=0.5;exitDx=0;exitDy=0;endArrow=open;endFill=0;" edge="1" parent="1" source="z_rCMweL1o7PcE1nNZRx-35" target="z_rCMweL1o7PcE1nNZRx-36">
          <mxGeometry relative="1" as="geometry" />
        </mxCell>
        <mxCell id="z_rCMweL1o7PcE1nNZRx-33" value="transformation" style="edgeLabel;html=1;align=center;verticalAlign=middle;resizable=0;points=[];" vertex="1" connectable="0" parent="z_rCMweL1o7PcE1nNZRx-32">
          <mxGeometry x="-0.7395" y="6" relative="1" as="geometry">
            <mxPoint x="16" y="-4" as="offset" />
          </mxGeometry>
        </mxCell>
        <mxCell id="z_rCMweL1o7PcE1nNZRx-34" value="1" style="edgeLabel;html=1;align=center;verticalAlign=middle;resizable=0;points=[];" vertex="1" connectable="0" parent="z_rCMweL1o7PcE1nNZRx-32">
          <mxGeometry x="0.7778" y="-1" relative="1" as="geometry">
            <mxPoint x="9" y="10" as="offset" />
          </mxGeometry>
        </mxCell>
        <mxCell id="z_rCMweL1o7PcE1nNZRx-35" value="shapeB: Shape" style="swimlane;fontStyle=0;childLayout=stackLayout;horizontal=1;startSize=26;fillColor=none;horizontalStack=0;resizeParent=1;resizeParentMax=0;resizeLast=0;collapsible=1;marginBottom=0;whiteSpace=wrap;html=1;" vertex="1" collapsed="1" parent="1">
          <mxGeometry x="303" y="310" width="110" height="30" as="geometry">
            <mxRectangle x="320" y="200" width="160" height="52" as="alternateBounds" />
          </mxGeometry>
        </mxCell>
        <mxCell id="z_rCMweL1o7PcE1nNZRx-39" style="edgeStyle=orthogonalEdgeStyle;rounded=0;orthogonalLoop=1;jettySize=auto;html=1;exitX=1;exitY=0.5;exitDx=0;exitDy=0;" edge="1" parent="1" source="z_rCMweL1o7PcE1nNZRx-36" target="z_rCMweL1o7PcE1nNZRx-6">
          <mxGeometry relative="1" as="geometry" />
        </mxCell>
        <mxCell id="z_rCMweL1o7PcE1nNZRx-40" value="parent" style="edgeLabel;html=1;align=center;verticalAlign=middle;resizable=0;points=[];" vertex="1" connectable="0" parent="z_rCMweL1o7PcE1nNZRx-39">
          <mxGeometry x="-0.9103" y="2" relative="1" as="geometry">
            <mxPoint y="-13" as="offset" />
          </mxGeometry>
        </mxCell>
        <mxCell id="2211oM2EaEWKlXJPVHAY-2" value="*" style="edgeLabel;html=1;align=center;verticalAlign=middle;resizable=0;points=[];" vertex="1" connectable="0" parent="z_rCMweL1o7PcE1nNZRx-39">
          <mxGeometry x="0.9031" y="-5" relative="1" as="geometry">
            <mxPoint as="offset" />
          </mxGeometry>
        </mxCell>
        <mxCell id="z_rCMweL1o7PcE1nNZRx-36" value="transformation: HierTransformation" style="swimlane;fontStyle=0;childLayout=stackLayout;horizontal=1;startSize=26;fillColor=none;horizontalStack=0;resizeParent=1;resizeParentMax=0;resizeLast=0;collapsible=1;marginBottom=0;whiteSpace=wrap;html=1;" vertex="1" parent="1">
          <mxGeometry x="560" y="310" width="220" height="78" as="geometry">
            <mxRectangle x="560" y="280" width="230" height="30" as="alternateBounds" />
          </mxGeometry>
        </mxCell>
        <mxCell id="z_rCMweL1o7PcE1nNZRx-37" value="- parent" style="text;strokeColor=none;fillColor=none;align=left;verticalAlign=top;spacingLeft=4;spacingRight=4;overflow=hidden;rotatable=0;points=[[0,0.5],[1,0.5]];portConstraint=eastwest;whiteSpace=wrap;html=1;" vertex="1" parent="z_rCMweL1o7PcE1nNZRx-36">
          <mxGeometry y="26" width="220" height="26" as="geometry" />
        </mxCell>
        <mxCell id="z_rCMweL1o7PcE1nNZRx-38" value="- children" style="text;strokeColor=none;fillColor=none;align=left;verticalAlign=top;spacingLeft=4;spacingRight=4;overflow=hidden;rotatable=0;points=[[0,0.5],[1,0.5]];portConstraint=eastwest;whiteSpace=wrap;html=1;" vertex="1" parent="z_rCMweL1o7PcE1nNZRx-36">
          <mxGeometry y="52" width="220" height="26" as="geometry" />
        </mxCell>
      </root>
    </mxGraphModel>
  </diagram>
</mxfile>
